<?xml version="1.0" encoding="UTF-8"?>
<svg version="1.1" xmlns="http://www.w3.org/2000/svg" width="1375" height="139">
<path d="M0 0 C453.75 0 907.5 0 1375 0 C1375 45.87 1375 91.74 1375 139 C921.25 139 467.5 139 0 139 C0 93.13 0 47.26 0 0 Z " fill="#FDFDFD" transform="translate(0,0)"/>
<path d="M0 0 C3.52317253 2.02128726 6.75504113 3.95581184 9.19921875 7.26171875 C9.81914552 10.91928671 9.94989477 12.96888782 8.07421875 16.19921875 C5.14266246 17.86043398 3.53239091 17.83861393 0.19921875 17.26171875 C-1.79501588 15.86575451 -3.52348346 14.35022542 -5.28515625 12.671875 C-8.76135173 9.43757972 -12.56193774 9.92478814 -17.08984375 9.99609375 C-19.96693057 10.13191106 -19.96693057 10.13191106 -22.98828125 11.69921875 C-25.23897726 14.88123725 -25.61159099 16.94466442 -25.30834961 20.79833984 C-23.63388493 28.92501064 -14.68926328 35.64226728 -9.05078125 41.19921875 C-8.18839844 42.06095703 -7.32601562 42.92269531 -6.4375 43.81054688 C-2.48582078 48.02402068 -2.48582078 48.02402068 2.19921875 51.26171875 C2.39257812 50.34648438 2.5859375 49.43125 2.78515625 48.48828125 C3.04554688 47.29976562 3.3059375 46.11125 3.57421875 44.88671875 C3.82945312 43.70335937 4.0846875 42.52 4.34765625 41.30078125 C5.19921875 38.26171875 5.19921875 38.26171875 7.19921875 36.26171875 C12.45944051 35.70212069 12.45944051 35.70212069 14.8671875 37.5234375 C17.32945778 40.73666411 16.6672515 44.40196817 16.19921875 48.26171875 C15.57218585 50.64444379 14.82206627 52.91416663 13.953125 55.21875 C13.2164338 57.21506863 12.67867588 59.19027775 12.19921875 61.26171875 C12.99328125 61.90238281 13.78734375 62.54304688 14.60546875 63.203125 C15.63761806 64.07576033 16.66881901 64.94951823 17.69921875 65.82421875 C18.22386719 66.24251953 18.74851562 66.66082031 19.2890625 67.09179688 C22.31013615 69.70090594 23.16539813 70.96081007 23.6171875 74.98046875 C23.19921875 78.26171875 23.19921875 78.26171875 22.01171875 80.19921875 C19.48517299 81.6802973 18.11238293 81.63000229 15.19921875 81.26171875 C12.3046875 79.29296875 12.3046875 79.29296875 9.38671875 76.76171875 C8.41089844 75.92640625 7.43507813 75.09109375 6.4296875 74.23046875 C5.69363281 73.58078125 4.95757812 72.93109375 4.19921875 72.26171875 C3.29300781 72.81601563 2.38679688 73.3703125 1.453125 73.94140625 C-11.44181696 81.6790813 -11.44181696 81.6790813 -18.80078125 82.26171875 C-20.21810547 82.38160156 -20.21810547 82.38160156 -21.6640625 82.50390625 C-30.9293307 82.90418467 -38.01397517 80.84608137 -45.17578125 74.88671875 C-50.26255196 70.08768457 -53.42082281 65.62189753 -54.0390625 58.52734375 C-54.20332475 51.85310913 -54.00153578 46.64358729 -49.80078125 41.26171875 C-42.01341857 33.10284886 -42.01341857 33.10284886 -36.80078125 32.26171875 C-37.46078125 31.35421875 -38.12078125 30.44671875 -38.80078125 29.51171875 C-41.72470475 24.34507257 -41.68899447 19.02744767 -40.80078125 13.26171875 C-38.10788708 6.45222818 -33.20892059 2.38980402 -26.86328125 -0.98828125 C-18.29781397 -4.58577751 -8.3280888 -3.92314927 0 0 Z " fill="#060606" transform="translate(376.80078125,31.73828125)"/>
<path d="M0 0 C1.36193074 0.96068852 2.70592452 1.94969222 4 3 C4.103125 2.401875 4.20625 1.80375 4.3125 1.1875 C5.14469658 -1.46039822 5.63933104 -2.50490966 8 -4 C11.34577931 -3.88050788 13.91717346 -3.77434983 16.69250488 -1.78965759 C18.50929956 0.69711299 18.39396203 2.44500266 18.41992188 5.50952148 C18.43583374 6.63756699 18.45174561 7.76561249 18.46813965 8.92784119 C18.46834106 10.14661453 18.46854248 11.36538788 18.46875 12.62109375 C18.48017029 14.49825829 18.48017029 14.49825829 18.49182129 16.41334534 C18.50263694 19.06242538 18.50683551 21.71061418 18.50097656 24.35961914 C18.49508108 27.75074232 18.52566161 31.1404334 18.56609344 34.53127956 C18.59819253 37.76952438 18.59385416 41.00771433 18.59375 44.24609375 C18.61014526 45.46284286 18.62654053 46.67959198 18.64343262 47.93321228 C18.57432066 56.33469027 18.57432066 56.33469027 15.61914062 59.75805664 C12.60831612 61.18572855 11.25679761 61.8141994 8 61 C6.03574833 59.13799704 4.6081816 57.20550619 3 55 C1.4840625 56.175625 1.4840625 56.175625 -0.0625 57.375 C-6.37431543 61.8311417 -13.39955127 63.10839877 -21 62 C-27.03743404 59.87636768 -31.83104653 56.90465114 -36 52 C-36.70125 51.236875 -37.4025 50.47375 -38.125 49.6875 C-43.94659842 41.34320894 -44.6299063 31.9035269 -44 22 C-42.45627243 13.50949839 -37.7597137 5.88755171 -31 0.5625 C-20.96457785 -6.27294792 -10.61437118 -5.06980349 0 0 Z " fill="#060606" transform="translate(988,52)"/>
<path d="M0 0 C0.99 0.66 1.98 1.32 3 2 C3.680625 0.989375 4.36125 -0.02125 5.0625 -1.0625 C6.43359375 -2.71875 6.43359375 -2.71875 8 -4 C11.53232347 -4.06090213 13.78711376 -3.8798171 16.68469238 -1.77793884 C18.51730512 0.69925609 18.39395706 2.44441529 18.41992188 5.50952148 C18.43583374 6.63756699 18.45174561 7.76561249 18.46813965 8.92784119 C18.46834106 10.14661453 18.46854248 11.36538788 18.46875 12.62109375 C18.48017029 14.49825829 18.48017029 14.49825829 18.49182129 16.41334534 C18.50263694 19.06242538 18.50683551 21.71061418 18.50097656 24.35961914 C18.49508108 27.75074232 18.52566161 31.1404334 18.56609344 34.53127956 C18.59819253 37.76952438 18.59385416 41.00771433 18.59375 44.24609375 C18.61014526 45.46284286 18.62654053 46.67959198 18.64343262 47.93321228 C18.57436241 56.32961506 18.57436241 56.32961506 15.62695312 59.76977539 C12.7296651 61.12660015 11.14789947 61.57987622 8 61 C6.1875 59.75 6.1875 59.75 5 58 C5 56.68 5 55.36 5 54 C4.43152344 54.40992188 3.86304688 54.81984375 3.27734375 55.2421875 C-4.3856281 60.58963697 -11.55992617 63.35260759 -21 62 C-29.03427462 59.31391416 -35.6514062 54.64838565 -39.50390625 47.0234375 C-44.05090351 36.374914 -45.89143471 26.67293458 -42.03125 15.4140625 C-38.14709389 6.32160614 -32.46280711 0.95239697 -23.51171875 -3.13671875 C-15.36525414 -5.93667004 -7.55501566 -3.44438318 0 0 Z " fill="#050505" transform="translate(730,52)"/>
<path d="M0 0 C0.99 0.66 1.98 1.32 3 2 C3.680625 0.989375 4.36125 -0.02125 5.0625 -1.0625 C6.43359375 -2.71875 6.43359375 -2.71875 8 -4 C11.53232347 -4.06090213 13.78711376 -3.8798171 16.68469238 -1.77793884 C18.51730512 0.69925609 18.39395706 2.44441529 18.41992188 5.50952148 C18.43583374 6.63756699 18.45174561 7.76561249 18.46813965 8.92784119 C18.46834106 10.14661453 18.46854248 11.36538788 18.46875 12.62109375 C18.48017029 14.49825829 18.48017029 14.49825829 18.49182129 16.41334534 C18.50263694 19.06242538 18.50683551 21.71061418 18.50097656 24.35961914 C18.49508108 27.75074232 18.52566161 31.1404334 18.56609344 34.53127956 C18.59819253 37.76952438 18.59385416 41.00771433 18.59375 44.24609375 C18.61014526 45.46284286 18.62654053 46.67959198 18.64343262 47.93321228 C18.57436241 56.32961506 18.57436241 56.32961506 15.62695312 59.76977539 C12.7296651 61.12660015 11.14789947 61.57987622 8 61 C6.1875 59.75 6.1875 59.75 5 58 C5 56.68 5 55.36 5 54 C4.43152344 54.40992188 3.86304688 54.81984375 3.27734375 55.2421875 C-4.3856281 60.58963697 -11.55992617 63.35260759 -21 62 C-29.03427462 59.31391416 -35.6514062 54.64838565 -39.50390625 47.0234375 C-44.05090351 36.374914 -45.89143471 26.67293458 -42.03125 15.4140625 C-38.14709389 6.32160614 -32.46280711 0.95239697 -23.51171875 -3.13671875 C-15.36525414 -5.93667004 -7.55501566 -3.44438318 0 0 Z " fill="#040404" transform="translate(159,52)"/>
<path d="M0 0 C7.03231011 4.9960183 13.24909173 11.30844095 15 20 C16.04512764 32.71781827 15.21683015 42.25160232 6.8125 52.375 C2.66274806 56.72984677 -1.26700032 59.24730779 -7 61 C-7.804375 61.2475 -8.60875 61.495 -9.4375 61.75 C-20.09062914 62.78932967 -29.64673166 61.7776741 -38.18359375 54.79296875 C-45.38206048 47.68738546 -49.06693112 39.1004111 -49.375 29.0625 C-49.05308242 18.91565773 -46.21505521 11.27066257 -39 4 C-27.45905189 -5.37325698 -13.31971508 -7.09554915 0 0 Z " fill="#060606" transform="translate(1222,52)"/>
<path d="M0 0 C4.326367 1.8290332 7.25144834 5.0098525 9.75 8.9375 C9.75 9.5975 9.75 10.2575 9.75 10.9375 C10.7090625 9.885625 10.7090625 9.885625 11.6875 8.8125 C17.40068777 3.09931223 23.39863533 -0.77240902 31.5 -1.3125 C36.8289443 -1.20354389 41.4061129 -0.06932369 45.515625 3.44921875 C51.70021444 10.1291758 52.06984294 17.37266704 52.12109375 26.10546875 C52.13012222 27.0627034 52.1391507 28.01993805 52.14845276 29.00617981 C52.16289627 31.01898088 52.17182723 33.03182826 52.17553711 35.04467773 C52.18750497 38.12628024 52.23680732 41.20592441 52.28710938 44.28710938 C52.29656664 46.2473861 52.303805 48.20767506 52.30859375 50.16796875 C52.32812607 51.08781052 52.34765839 52.00765228 52.36778259 52.95536804 C52.32285275 59.29829365 52.32285275 59.29829365 49.41040039 62.5480957 C46.75 63.9375 46.75 63.9375 43.625 63.9375 C40.17439313 62.73728891 39.47936324 62.12465286 37.75 58.9375 C37.44795537 55.95589063 37.30901659 53.17335992 37.30859375 50.19140625 C37.28878197 48.91921486 37.28878197 48.91921486 37.26856995 47.62132263 C37.22772171 44.91418172 37.20602227 42.20737905 37.1875 39.5 C37.16367139 36.79629569 37.13547122 34.09290807 37.09571838 31.38938904 C37.07147104 29.70888789 37.05652341 28.02821971 37.05210876 26.34754944 C36.99625936 22.13951929 36.82104236 18.72096859 34.75 14.9375 C30.63941332 12.32167212 25.46309378 11.98844699 20.75 12.9375 C17.37487283 14.98265141 14.5285675 17.380365 12.75 20.9375 C12.65347458 23.8059512 12.61292459 26.65463881 12.609375 29.5234375 C12.59104898 31.27605468 12.57147886 33.02865922 12.55078125 34.78125 C12.52178965 37.54871968 12.49999949 40.3153763 12.49951172 43.08300781 C12.49617981 45.75138763 12.46164933 48.41788427 12.421875 51.0859375 C12.4289447 51.91209564 12.4360144 52.73825378 12.44329834 53.58944702 C12.35517666 57.74473567 12.31977359 59.33513789 9.36816406 62.45556641 C6.40542076 64.13253879 5.07709101 64.70529023 1.75 63.9375 C-1.26858416 61.1130124 -2.49749139 58.92259822 -2.76416016 54.86914062 C-2.79177979 53.27756174 -2.79895834 51.68553776 -2.7890625 50.09375 C-2.80085541 49.24703735 -2.81264832 48.40032471 -2.82479858 47.5279541 C-2.86000097 44.83094807 -2.86922128 42.13471678 -2.875 39.4375 C-2.89137162 36.74051642 -2.91347515 34.04387677 -2.94662476 31.3470459 C-2.9661682 29.67208705 -2.97559904 27.99697101 -2.97354126 26.32189941 C-3.01188951 22.110141 -3.19426753 18.73322564 -5.25 14.9375 C-9.21872639 12.16023058 -13.59369192 12.40344316 -18.25 12.9375 C-22.42723723 14.70122239 -24.80627772 17.14517011 -27.25 20.9375 C-27.82526939 23.91033525 -27.80769922 26.83059102 -27.7890625 29.8515625 C-27.80085541 30.70301849 -27.81264832 31.55447449 -27.82479858 32.43173218 C-27.86000399 35.14217553 -27.86922446 37.85184683 -27.875 40.5625 C-27.89134191 43.28006281 -27.91335977 45.9972815 -27.94662476 48.71469116 C-27.96625759 50.402935 -27.97558931 52.09133686 -27.97354126 53.7796936 C-28.0090411 57.6793847 -28.03738064 59.61857096 -30.25 62.9375 C-33.5625 63.9375 -33.5625 63.9375 -37.25 63.9375 C-39.93896484 62.1953125 -39.93896484 62.1953125 -42.25 58.9375 C-43.00156423 54.89876344 -42.95045943 50.91097504 -42.9140625 46.8125 C-42.91884613 45.63284668 -42.92362976 44.45319336 -42.92855835 43.23779297 C-42.93195727 40.74640569 -42.92275565 38.25497381 -42.90185547 35.76367188 C-42.87509343 31.95081101 -42.90160743 28.14089432 -42.93359375 24.328125 C-42.93028966 21.9062435 -42.92388344 19.48436384 -42.9140625 17.0625 C-42.92418365 15.92280762 -42.93430481 14.78311523 -42.94473267 13.60888672 C-42.81450142 4.81207843 -42.81450142 4.81207843 -39.90380859 1.67578125 C-37.25 -0.0625 -37.25 -0.0625 -34.125 0 C-31.25 0.9375 -31.25 0.9375 -28.25 2.9375 C-28.0625 6.0625 -28.0625 6.0625 -28.25 8.9375 C-27.59 8.9375 -26.93 8.9375 -26.25 8.9375 C-26.0128125 8.34453125 -25.775625 7.7515625 -25.53125 7.140625 C-20.2703821 -1.90550152 -9.03838371 -2.71495176 0 0 Z " fill="#060606" transform="translate(622.25,49.0625)"/>
<path d="M0 0 C7.38515162 5.2178982 13.20804096 11.93479543 15 21 C15.2734375 23.21875 15.2734375 23.21875 15.375 25.5 C15.42398438 26.2528125 15.47296875 27.005625 15.5234375 27.78125 C15 30 15 30 13.05834961 32.11425781 C8.81381917 34.73138507 5.43053324 34.50647152 0.54296875 34.390625 C-0.35999435 34.38496521 -1.26295746 34.37930542 -2.19328308 34.37347412 C-5.06690303 34.35114895 -7.93925928 34.30096018 -10.8125 34.25 C-12.7649559 34.22992999 -14.71743142 34.2116801 -16.66992188 34.1953125 C-21.44709878 34.15129682 -26.2233354 34.08229626 -31 34 C-30.254018 35.61748801 -29.49333739 37.22820217 -28.7265625 38.8359375 C-28.30455566 39.7336084 -27.88254883 40.6312793 -27.44775391 41.55615234 C-25.56472447 44.73475685 -23.69690226 46.10122741 -20.3046875 47.4453125 C-13.03852596 49.19411748 -7.27841979 48.61290752 -0.84765625 44.90234375 C2.17795657 43.42471888 4.72727527 43.55080249 8 44 C10.49119486 45.52686136 10.86788494 46.51117426 11.625 49.3125 C10.62278911 53.62200681 7.51594888 55.53528432 4 58 C-3.45028874 62.40935456 -11.50847671 62.7709832 -20 62 C-23.57958738 61.06575308 -26.73195129 59.72211958 -30 58 C-30.64839844 57.66097656 -31.29679688 57.32195312 -31.96484375 56.97265625 C-38.97270994 52.66366194 -42.91842305 44.75339673 -45 37 C-45.21179703 34.34566055 -45.33455492 31.83661091 -45.3125 29.1875 C-45.30686035 28.48044922 -45.3012207 27.77339844 -45.29541016 27.04492188 C-45.08027308 17.76633657 -42.51948263 10.70293127 -36 4 C-25.08549676 -4.82157878 -12.5439067 -7.19400142 0 0 Z " fill="#040404" transform="translate(267,52)"/>
<path d="M0 0 C6.30062809 4.87021522 10.38382637 11.17352955 12 19 C12.2734375 21.21875 12.2734375 21.21875 12.375 23.5 C12.42398438 24.2528125 12.47296875 25.005625 12.5234375 25.78125 C12 28 12 28 10.05834961 30.11425781 C5.81381917 32.73138507 2.43053324 32.50647152 -2.45703125 32.390625 C-3.35999435 32.38496521 -4.26295746 32.37930542 -5.19328308 32.37347412 C-8.06690303 32.35114895 -10.93925928 32.30096018 -13.8125 32.25 C-15.7649559 32.22992999 -17.71743142 32.2116801 -19.66992188 32.1953125 C-24.44709878 32.15129682 -29.2233354 32.08229626 -34 32 C-33.55398438 33.09699219 -33.10796875 34.19398437 -32.6484375 35.32421875 C-32.39755371 35.94127686 -32.14666992 36.55833496 -31.88818359 37.1940918 C-30.06732179 40.89637732 -27.35093606 43.35615924 -23.6640625 45.11328125 C-17.42951454 47.18841672 -11.09831681 46.82038975 -5.1875 44 C-4.46691406 43.63777344 -3.74632812 43.27554688 -3.00390625 42.90234375 C-0.19159267 41.63598032 1.97504407 41.49584068 5 42 C7.42788686 43.53766167 7.87841956 44.55015236 8.625 47.3125 C7.62070158 51.6309832 4.56941306 53.58560169 1 56 C-7.00488153 60.38322266 -16.10509039 61.16119889 -25 59.375 C-33.19100509 56.97075761 -39.50232241 52.65554516 -43.81640625 45.26171875 C-44.20699219 44.51535156 -44.59757812 43.76898438 -45 43 C-45.33902344 42.40832031 -45.67804688 41.81664062 -46.02734375 41.20703125 C-49.54009599 33.87395859 -49.05840812 23.80063682 -47.34375 16.0234375 C-43.86528121 6.33770114 -36.44439249 -0.85273855 -27.3125 -5.3125 C-16.79442184 -7.49549735 -8.99517625 -5.8969824 0 0 Z " fill="#040404" transform="translate(556,54)"/>
<path d="M0 0 C8.00125694 6.45988926 11.10206304 13.04238724 12.28125 23.11328125 C12.56178483 27.66089857 12.56178483 27.66089857 11.9921875 29.64453125 C7.47180056 33.3729137 3.09937313 33.03641355 -2.46484375 32.9375 C-3.36780685 32.93325516 -4.27076996 32.92901031 -5.20109558 32.92463684 C-8.074476 32.90789436 -10.94714541 32.87025041 -13.8203125 32.83203125 C-15.7727763 32.81697868 -17.72525114 32.80329128 -19.67773438 32.79101562 C-24.45469947 32.75800533 -29.23113559 32.7062536 -34.0078125 32.64453125 C-33.25952408 34.08571433 -32.49936337 35.52073642 -31.734375 36.953125 C-31.10136475 38.15279907 -31.10136475 38.15279907 -30.45556641 39.37670898 C-28.05770564 43.13281838 -25.18257837 45.1702506 -21.0078125 46.64453125 C-14.18838637 47.7727081 -9.09834757 46.61350422 -3.01171875 43.54296875 C-0.22551144 42.29379198 1.99283469 42.21605228 4.9921875 42.64453125 C5.9821875 43.30453125 6.9721875 43.96453125 7.9921875 44.64453125 C8.5546875 47.95703125 8.5546875 47.95703125 7.9921875 51.64453125 C2.89577988 57.73190701 -5.17746774 60.05306046 -12.87890625 60.99609375 C-21.88803231 61.2772296 -30.04872838 59.25578545 -37.1171875 53.5234375 C-44.89946011 45.78940212 -47.23716696 39.13444529 -47.3203125 28.51953125 C-47.32932847 17.89571858 -45.45109296 10.31397866 -38.00390625 2.40234375 C-26.98683864 -7.29957489 -12.16975089 -8.21576568 0 0 Z " fill="#030303" transform="translate(840.0078125,53.35546875)"/>
<path d="M0 0 C6.33945459 1.90183638 9.38428052 7.57658863 12.625 13 C13.48514773 14.40867201 14.34722982 15.81616416 15.2109375 17.22265625 C15.67209961 17.97434082 16.13326172 18.72602539 16.60839844 19.50048828 C19.42242083 24.02231241 22.33954398 28.47737757 25.25 32.9375 C25.83072266 33.82832275 26.41144531 34.71914551 27.00976562 35.63696289 C28.3803108 37.73792947 29.75199355 39.83814139 31.125 41.9375 C34.52312286 37.84484852 37.47069404 33.54323331 40.40625 29.1171875 C41.42290562 27.59747461 42.4398411 26.07794892 43.45703125 24.55859375 C45.04649499 22.17956673 46.63382638 19.79920491 48.21630859 17.41552734 C49.75267761 15.10359887 51.29752713 12.79753325 52.84375 10.4921875 C53.54860535 9.42337845 53.54860535 9.42337845 54.2677002 8.33297729 C58.63073511 1.85237916 58.63073511 1.85237916 62.125 -0.0625 C65.1568624 0.06124949 67.23980953 0.34621304 69.78234863 2.04457092 C71.85991861 4.97362065 71.52214126 7.54492154 71.54492188 11.09936523 C71.55339142 11.82489594 71.56186096 12.55042664 71.57058716 13.29794312 C71.59399597 15.69750472 71.59497844 18.09642657 71.59375 20.49609375 C71.60084935 22.16374469 71.60854801 23.83139317 71.61682129 25.4990387 C71.63027504 28.9952778 71.63183095 32.49129107 71.62597656 35.98754883 C71.62007997 40.46814817 71.65066511 44.94766411 71.69109344 49.42805386 C71.71694289 52.87248066 71.7198504 56.31664565 71.71620178 59.76115608 C71.71789568 61.4129922 71.72756423 63.06484007 71.74534607 64.71658134 C71.76748298 67.02720503 71.75786387 69.33562412 71.74023438 71.64624023 C71.74228882 72.96067612 71.74434326 74.275112 71.74645996 75.62937927 C71.125 78.9375 71.125 78.9375 68.8170166 81.39710999 C66.125 82.9375 66.125 82.9375 62.4375 82.875 C59.125 81.9375 59.125 81.9375 57.125 78.9375 C56.88449097 76.67854309 56.88449097 76.67854309 56.89794922 74.00708008 C56.89810028 73.00626907 56.89825134 72.00545807 56.89840698 70.97431946 C56.90872955 69.89611435 56.91905212 68.81790924 56.9296875 67.70703125 C56.9325174 66.60147385 56.93534729 65.49591644 56.93826294 64.3568573 C56.94946998 60.82112872 56.97457573 57.2856522 57 53.75 C57.01002911 51.35482136 57.01915508 48.95963876 57.02734375 46.56445312 C57.04941103 40.68871589 57.08289382 34.81312595 57.125 28.9375 C56.465 28.9375 55.805 28.9375 55.125 28.9375 C54.85929199 29.66130859 54.59358398 30.38511719 54.31982422 31.13085938 C53.1173802 33.9553989 51.71460263 36.29630205 50.0078125 38.84375 C49.09708984 40.20693359 49.09708984 40.20693359 48.16796875 41.59765625 C47.53503906 42.53480469 46.90210938 43.47195312 46.25 44.4375 C45.62480469 45.37464844 44.99960938 46.31179687 44.35546875 47.27734375 C36.10501518 59.57453141 36.10501518 59.57453141 31.75 61.1875 C28.125 60.9375 28.125 60.9375 25.36328125 58.16015625 C21.30870844 53.14568925 18.03455084 47.62396958 14.6875 42.125 C10.53731806 35.34113045 6.31140106 28.6849979 1.70727539 22.19946289 C-0.48468334 19.06591905 -2.50333719 15.85996592 -4.4375 12.5625 C-4.80423828 11.97339844 -5.17097656 11.38429688 -5.54882812 10.77734375 C-8.03139274 6.53649441 -8.03139274 6.53649441 -7.27734375 3.6484375 C-5.03650565 0.91449018 -3.55579286 -0.07729984 0 0 Z " fill="#040404" transform="translate(30.875,30.0625)"/>
<path d="M0 0 C4.50010474 1.22730129 4.50010474 1.22730129 6.4375 3.9375 C6.86987305 6.84838867 6.86987305 6.84838867 6.94921875 10.35546875 C6.98466797 11.60908203 7.02011719 12.86269531 7.05664062 14.15429688 C7.07919922 15.46462891 7.10175781 16.77496094 7.125 18.125 C7.15817666 19.46032013 7.19266666 20.79560832 7.22851562 22.13085938 C7.31112057 25.39965504 7.38023229 28.66817812 7.4375 31.9375 C8.26241943 31.20454712 8.26241943 31.20454712 9.10400391 30.45678711 C9.82507324 29.8200708 10.54614258 29.18335449 11.2890625 28.52734375 C12.36148193 27.57782837 12.36148193 27.57782837 13.45556641 26.60913086 C17.96259098 22.80775155 22.14969592 22.54656969 27.875 22.69140625 C33.45163718 23.22696744 37.14574751 24.73186434 41.25 28.5625 C46.09171621 35.17138954 46.90437937 42.87288563 46.90625 50.828125 C46.91767029 52.18958649 46.91767029 52.18958649 46.92932129 53.57855225 C46.94005067 55.48105129 46.94300484 57.3836089 46.93847656 59.28613281 C46.9374977 62.19434648 46.9793348 65.09997427 47.0234375 68.0078125 C47.02864065 69.86457787 47.03133276 71.72135234 47.03125 73.578125 C47.0558429 74.87511322 47.0558429 74.87511322 47.08093262 76.19830322 C47.03027922 80.61534506 46.86244465 82.39226494 44.06054688 85.98730469 C41.4375 87.9375 41.4375 87.9375 38.875 88.5 C35.51046246 87.72356826 34.50655832 86.71783912 32.4375 83.9375 C31.85382481 80.95132608 31.90398396 78.00734112 31.93359375 74.97265625 C31.92417252 74.10233261 31.91475128 73.23200897 31.90504456 72.33531189 C31.87638909 69.55663485 31.87331631 66.77881288 31.875 64 C31.87139001 61.22488245 31.86182506 58.4503876 31.83424377 55.67539978 C31.81748489 53.95035144 31.81455669 52.22509827 31.82725525 50.50001526 C31.78632923 45.81759312 31.46276969 42.75020034 28.4375 38.9375 C24.41465155 36.22823472 20.12279967 36.26353142 15.4375 36.9375 C11.6348971 38.9425088 9.81959159 40.36436262 7.4375 43.9375 C7.25592948 46.84966163 7.18457313 49.67418865 7.19921875 52.5859375 C7.18379919 54.33073695 7.16749556 56.07552876 7.15039062 57.8203125 C7.13393666 60.56787956 7.12500615 63.31488772 7.13208008 66.0625 C7.13470195 68.71678748 7.10656773 71.36937694 7.07421875 74.0234375 C7.08442551 74.8412973 7.09463226 75.6591571 7.10514832 76.50180054 C7.03145687 80.80865589 6.81544329 82.45753878 4.05786133 85.95947266 C1.4375 87.9375 1.4375 87.9375 -1.125 88.5 C-4.44290179 87.73433036 -5.48896801 86.63776346 -7.5625 83.9375 C-7.95732906 81.22370254 -8.110265 78.9149879 -8.08007812 76.203125 C-8.0870874 75.42868042 -8.09409668 74.65423584 -8.10131836 73.85632324 C-8.11890499 71.29968268 -8.10727389 68.74415156 -8.09375 66.1875 C-8.09644474 64.40917753 -8.10032701 62.63085649 -8.10534668 60.85253906 C-8.11124261 57.12681032 -8.10267587 53.40146536 -8.08398438 49.67578125 C-8.06119459 44.90050713 -8.07431719 40.12613224 -8.09827423 35.35089111 C-8.11272975 31.67913032 -8.10812739 28.00758265 -8.09776306 24.33581543 C-8.09509508 22.57515354 -8.09836804 20.81447229 -8.10768127 19.05383301 C-8.11784308 16.59265913 -8.10235253 14.1329405 -8.08007812 11.671875 C-8.08817505 10.9444812 -8.09627197 10.2170874 -8.10461426 9.46765137 C-8.04786382 6.08228525 -7.76688969 4.21842035 -5.75280762 1.45019531 C-3.5625 -0.0625 -3.5625 -0.0625 0 0 Z " fill="#060606" transform="translate(1086.5625,25.0625)"/>
<path d="M0 0 C5.57768798 2.91586065 7.53860446 7.87034858 9.34838867 13.51791382 C10.39448727 17.72956528 10.44041884 21.8540274 10.44140625 26.17578125 C10.45282654 27.57409431 10.45282654 27.57409431 10.46447754 29.00065613 C10.47520868 30.95443051 10.47816036 32.90826194 10.47363281 34.86206055 C10.472653 37.85365853 10.51450777 40.84275083 10.55859375 43.83398438 C10.56379605 45.73957801 10.56648902 47.64518051 10.56640625 49.55078125 C10.58280151 50.44247513 10.59919678 51.33416901 10.61608887 52.25288391 C10.54716268 58.41219218 10.54716268 58.41219218 7.59570312 61.5925293 C4.64524557 63.2108322 3.26955808 63.70753756 -0.02734375 63.03125 C-2.41028702 61.37852372 -3.8241634 60.07088799 -4.39358521 57.15725708 C-4.53771576 54.7858481 -4.55442997 52.4421033 -4.53125 50.06640625 C-4.54067123 49.19608261 -4.55009247 48.32575897 -4.55979919 47.42906189 C-4.58845466 44.65038485 -4.59152744 41.87256288 -4.58984375 39.09375 C-4.59345374 36.31863245 -4.60301869 33.5441376 -4.63059998 30.76914978 C-4.64735886 29.04410144 -4.65028706 27.31884827 -4.6375885 25.59376526 C-4.67842894 20.92113521 -4.97022481 17.80858795 -8.02734375 14.03125 C-12.49055733 11.05577428 -16.79306694 11.41061432 -22.02734375 12.03125 C-25.938103 14.02093453 -27.60423473 15.39658646 -30.02734375 19.03125 C-30.20891427 21.94341163 -30.28027062 24.76793865 -30.265625 27.6796875 C-30.28104456 29.42448695 -30.29734819 31.16927876 -30.31445312 32.9140625 C-30.33090709 35.66162956 -30.3398376 38.40863772 -30.33276367 41.15625 C-30.3301418 43.81053748 -30.35827602 46.46312694 -30.390625 49.1171875 C-30.38041824 49.9350473 -30.37021149 50.7529071 -30.35969543 51.59555054 C-30.43271152 55.86293481 -30.68010391 57.57156744 -33.33666992 61.08837891 C-36.02734375 63.03125 -36.02734375 63.03125 -39.71484375 63.03125 C-43.02734375 62.03125 -43.02734375 62.03125 -45.02734375 59.03125 C-45.29476929 56.57142639 -45.29476929 56.57142639 -45.31787109 53.61352539 C-45.33701065 51.95148827 -45.33701065 51.95148827 -45.35653687 50.25587463 C-45.35876251 49.05897507 -45.36098816 47.8620755 -45.36328125 46.62890625 C-45.37326645 44.78503578 -45.37326645 44.78503578 -45.38345337 42.90391541 C-45.39358617 40.30225117 -45.3982702 37.7005609 -45.39794922 35.09887695 C-45.39770594 31.11313891 -45.43864 27.1281345 -45.4765625 23.14257812 C-45.48243035 20.6171913 -45.48639995 18.0917992 -45.48828125 15.56640625 C-45.50265228 14.37153091 -45.51702332 13.17665558 -45.53182983 11.9455719 C-45.52567657 10.83439499 -45.51952332 9.72321808 -45.51318359 8.57836914 C-45.51603363 7.60146622 -45.51888367 6.62456329 -45.52182007 5.61805725 C-44.88170289 2.26934328 -43.72567383 1.06137368 -41.02734375 -0.96875 C-37.47440077 -0.90641767 -35.06016471 -0.66840291 -32.08984375 1.34375 C-31.02734375 3.03125 -31.02734375 3.03125 -31.02734375 7.03125 C-30.43566406 6.54914062 -29.84398437 6.06703125 -29.234375 5.5703125 C-28.44417969 4.93867187 -27.65398437 4.30703125 -26.83984375 3.65625 C-26.06253906 3.02976562 -25.28523438 2.40328125 -24.484375 1.7578125 C-17.01682575 -3.48965454 -8.33290817 -3.17444121 0 0 Z " fill="#070707" transform="translate(1295.02734375,49.96875)"/>
<path d="M0 0 C2.78572333 1.84677375 3.99101835 3.20974771 6 6 C6.58762379 9.32986813 6.55829043 10.98194099 4.9375 13.9375 C1.73887696 15.6915836 -0.56080174 14.88944782 -4 14 C-6.75 12 -6.75 12 -9 10 C-11.92654527 9.02448491 -13.94654996 8.83521912 -17 8.8125 C-17.86625 8.79832031 -18.7325 8.78414062 -19.625 8.76953125 C-22.26721537 8.83744062 -22.26721537 8.83744062 -25 11 C-25.25015873 14.58357241 -25.25015873 14.58357241 -25 18 C-18.7659413 21.43509357 -12.36871746 23.58645323 -5.5859375 25.65625 C-0.36255548 27.61359577 4.10045812 30.11656105 7 35 C8.48470695 38.77925405 8.64243064 43.01548638 8 47 C5.48510852 52.76024937 1.81460263 57.2481646 -3.96484375 59.90234375 C-12.30465082 63.08290286 -21.59965756 63.1079801 -30 60 C-34.8262685 57.39120621 -39.01560582 54.69238593 -42 50 C-42.4375 46.9375 -42.4375 46.9375 -42 44 C-39.97197187 41.74663541 -38.57501012 41.12105476 -35.625 40.5 C-32.46802358 41.10132884 -30.87947186 42.58630279 -28.515625 44.6875 C-23.51551169 49.01749503 -18.9348872 49.32745751 -12.5859375 49.30078125 C-9.94909827 48.99407941 -8.27061387 48.33784996 -6 47 C-6 44.69 -6 42.38 -6 40 C-10.82186057 37.71596078 -15.53734405 35.79590383 -20.64550781 34.23486328 C-27.845904 32.01648764 -33.9517184 29.87725056 -38.15234375 23.15625 C-39.19235401 20.51069396 -39.26574571 18.40066402 -39.25 15.5625 C-39.25515625 14.63566406 -39.2603125 13.70882812 -39.265625 12.75390625 C-38.81980902 8.13184348 -37.45819463 4.92127479 -33.9375 1.875 C-23.61917484 -6.41384091 -11.48419524 -5.27784292 0 0 Z " fill="#060606" transform="translate(1059,52)"/>
<path d="M0 0 C1 1 1 1 1.25 4.375 C1 8 1 8 -0.109375 9.7265625 C-3.62892001 12.09716513 -7.88705122 11.03313237 -11.96875 10.8125 C-14.95058926 10.74285753 -14.95058926 10.74285753 -16.86328125 12.23828125 C-18.19909515 14.30856327 -18.48705387 15.74205727 -18.6875 18.1875 C-18.790625 19.445625 -18.89375 20.70375 -19 22 C-18.10796875 21.96519531 -17.2159375 21.93039063 -16.296875 21.89453125 C-15.12640625 21.86746094 -13.9559375 21.84039062 -12.75 21.8125 C-11.00976562 21.76029297 -11.00976562 21.76029297 -9.234375 21.70703125 C-5.74282645 22.02329471 -4.3858543 22.46937299 -2 25 C-1.5 28.5 -1.5 28.5 -2 32 C-4.3858543 34.53062701 -5.74282645 34.97670529 -9.234375 35.29296875 C-10.39453125 35.25816406 -11.5546875 35.22335938 -12.75 35.1875 C-13.92046875 35.16042969 -15.0909375 35.13335937 -16.296875 35.10546875 C-17.18890625 35.07066406 -18.0809375 35.03585938 -19 35 C-18.98889694 35.56740906 -18.97779388 36.13481812 -18.96635437 36.71942139 C-18.85575366 42.62398541 -18.78033042 48.52825537 -18.7253418 54.43359375 C-18.70019426 56.63749136 -18.66607173 58.84130555 -18.62280273 61.04492188 C-18.56216314 64.21244886 -18.53379251 67.3788736 -18.51171875 70.546875 C-18.48591232 71.53242371 -18.4601059 72.51797241 -18.43351746 73.53338623 C-18.43071256 80.37119801 -18.43071256 80.37119801 -21.37036133 83.61816406 C-24.33803418 85.17763193 -25.72058431 85.75678824 -29 85 C-31.43453506 82.83835855 -32.82947405 81.073832 -33.34802246 77.80844116 C-33.46321018 75.08625312 -33.4492968 72.39198603 -33.390625 69.66796875 C-33.38213531 68.18034782 -33.38213531 68.18034782 -33.37347412 66.66267395 C-33.35113344 63.50378586 -33.30094038 60.34604364 -33.25 57.1875 C-33.22993206 55.04233412 -33.2116818 52.89715041 -33.1953125 50.75195312 C-33.15127645 45.50091297 -33.0843875 40.25053836 -33 35 C-33.92993774 35.02827881 -33.92993774 35.02827881 -34.87866211 35.05712891 C-35.69085205 35.07179199 -36.50304199 35.08645508 -37.33984375 35.1015625 C-38.54821899 35.12984131 -38.54821899 35.12984131 -39.78100586 35.15869141 C-42 35 -42 35 -44.5625 33.375 C-46.42799134 30.29288388 -46.60285455 28.54177048 -46 25 C-44.5625 23.125 -44.5625 23.125 -42 22 C-38.9820363 21.76625066 -36.01989876 21.82577507 -33 22 C-33.05800781 21.29875 -33.11601563 20.5975 -33.17578125 19.875 C-33.46026331 13.89274874 -33.1867724 9.65044932 -29.625 4.72265625 C-21.91964319 -3.44576287 -9.73308033 -6.08317521 0 0 Z " fill="#060606" transform="translate(940,28)"/>
<path d="M0 0 C4.60343621 1.2554826 4.60343621 1.2554826 6.4375 3.9375 C6.74383141 6.55566884 6.86792571 8.93834681 6.85742188 11.55834961 C6.86589142 12.33264816 6.87436096 13.10694672 6.88308716 13.90470886 C6.90650371 16.46658715 6.90747824 19.02786649 6.90625 21.58984375 C6.91334884 23.36959576 6.92104743 25.14934547 6.92932129 26.92909241 C6.94277682 30.66071941 6.94433011 34.39213481 6.93847656 38.1237793 C6.93257973 42.90702213 6.96316575 47.68925021 7.00359344 52.47229671 C7.0294373 56.14833552 7.03235089 59.82412892 7.02870178 63.50024605 C7.03039619 65.26372389 7.04006948 67.02721268 7.05784607 68.79060173 C7.07997132 71.25684469 7.07036875 73.72102027 7.05273438 76.18725586 C7.06599762 76.9162207 7.07926086 77.64518555 7.09292603 78.39624023 C7.03042248 82.15630894 6.72073975 83.64581197 4.0592041 86.38673401 C1.09481385 88.14020252 -0.1992004 88.71364606 -3.5625 87.9375 C-6.99532644 84.61736661 -8.02373715 82.12052198 -8.10461426 77.34638977 C-8.09651733 76.63194199 -8.08842041 75.9174942 -8.08007812 75.18139648 C-8.0870874 74.41655945 -8.09409668 73.65172241 -8.10131836 72.8637085 C-8.11887048 70.34496357 -8.1072874 67.82734935 -8.09375 65.30859375 C-8.09644545 63.55412074 -8.10032832 61.79964918 -8.10534668 60.04518127 C-8.11123769 56.37250512 -8.1026907 52.70021868 -8.08398438 49.02758789 C-8.061178 44.3207195 -8.07433074 39.61476259 -8.09827423 34.90792751 C-8.1127287 31.2867801 -8.10812817 27.66584882 -8.09776306 24.0446949 C-8.09509567 22.30915278 -8.098366 20.573591 -8.10768127 18.83807182 C-8.11784328 16.41292197 -8.10235321 13.98924885 -8.08007812 11.56420898 C-8.08817505 10.84773697 -8.09627197 10.13126495 -8.10461426 9.39308167 C-8.04742121 6.03130497 -7.75610052 4.20287146 -5.75280762 1.45692444 C-3.5625 -0.0625 -3.5625 -0.0625 0 0 Z " fill="#070707" transform="translate(772.5625,25.0625)"/>
<path d="M0 0 C4.60343621 1.2554826 4.60343621 1.2554826 6.4375 3.9375 C6.74383141 6.55566884 6.86792571 8.93834681 6.85742188 11.55834961 C6.86589142 12.33264816 6.87436096 13.10694672 6.88308716 13.90470886 C6.90650371 16.46658715 6.90747824 19.02786649 6.90625 21.58984375 C6.91334884 23.36959576 6.92104743 25.14934547 6.92932129 26.92909241 C6.94277682 30.66071941 6.94433011 34.39213481 6.93847656 38.1237793 C6.93257973 42.90702213 6.96316575 47.68925021 7.00359344 52.47229671 C7.0294373 56.14833552 7.03235089 59.82412892 7.02870178 63.50024605 C7.03039619 65.26372389 7.04006948 67.02721268 7.05784607 68.79060173 C7.07997132 71.25684469 7.07036875 73.72102027 7.05273438 76.18725586 C7.06599762 76.9162207 7.07926086 77.64518555 7.09292603 78.39624023 C7.03042248 82.15630894 6.72073975 83.64581197 4.0592041 86.38673401 C1.09481385 88.14020252 -0.1992004 88.71364606 -3.5625 87.9375 C-6.99532644 84.61736661 -8.02373715 82.12052198 -8.10461426 77.34638977 C-8.09651733 76.63194199 -8.08842041 75.9174942 -8.08007812 75.18139648 C-8.0870874 74.41655945 -8.09409668 73.65172241 -8.10131836 72.8637085 C-8.11887048 70.34496357 -8.1072874 67.82734935 -8.09375 65.30859375 C-8.09644545 63.55412074 -8.10032832 61.79964918 -8.10534668 60.04518127 C-8.11123769 56.37250512 -8.1026907 52.70021868 -8.08398438 49.02758789 C-8.061178 44.3207195 -8.07433074 39.61476259 -8.09827423 34.90792751 C-8.1127287 31.2867801 -8.10812817 27.66584882 -8.09776306 24.0446949 C-8.09509567 22.30915278 -8.098366 20.573591 -8.10768127 18.83807182 C-8.11784328 16.41292197 -8.10235321 13.98924885 -8.08007812 11.56420898 C-8.08817505 10.84773697 -8.09627197 10.13126495 -8.10461426 9.39308167 C-8.04742121 6.03130497 -7.75610052 4.20287146 -5.75280762 1.45692444 C-3.5625 -0.0625 -3.5625 -0.0625 0 0 Z " fill="#070707" transform="translate(201.5625,25.0625)"/>
<path d="M0 0 C4.05523038 2.85709413 7.51585617 6.46921234 9.75 10.9375 C11.12614198 26.1621594 11.12614198 26.1621594 7.25 31.6875 C2.77205239 36.42762253 -2.21783165 39.06152398 -8.75 39.5 C-13.82595 39.24576416 -17.45188672 37.22862531 -21.25 33.9375 C-26.06425686 27.8888183 -26.73030608 22.63227294 -26.65625 15.05078125 C-25.89987294 9.25431476 -22.91878967 5.33356664 -18.64453125 1.49609375 C-12.99288813 -2.35668909 -6.29693422 -2.05861311 0 0 Z " fill="#FAFAFA" transform="translate(1213.25,62.0625)"/>
<path d="M0 0 C5.06716248 2.25421296 8.27957067 5.40970296 10.8046875 10.3515625 C12.60637382 15.98613563 12.78193654 22.64435836 10.5546875 28.1640625 C7.21229221 34.25199678 4.59134379 37.23768595 -2.1953125 39.3515625 C-6.93963109 40.0293223 -10.19711717 39.8600771 -14.5078125 37.6640625 C-19.38465724 33.46770772 -22.90005486 29.39340283 -23.53125 22.890625 C-23.54414062 21.59898438 -23.55703125 20.30734375 -23.5703125 18.9765625 C-23.59867188 17.69007812 -23.62703125 16.40359375 -23.65625 15.078125 C-22.98169393 9.6245107 -20.36160773 5.89795589 -16.0703125 2.5390625 C-11.00754588 -1.31304253 -6.15013984 -1.81658935 0 0 Z " fill="#F9F9F9" transform="translate(723.1953125,61.6484375)"/>
<path d="M0 0 C5.06716248 2.25421296 8.27957067 5.40970296 10.8046875 10.3515625 C12.60637382 15.98613563 12.78193654 22.64435836 10.5546875 28.1640625 C7.21229221 34.25199678 4.59134379 37.23768595 -2.1953125 39.3515625 C-6.93963109 40.0293223 -10.19711717 39.8600771 -14.5078125 37.6640625 C-19.38465724 33.46770772 -22.90005486 29.39340283 -23.53125 22.890625 C-23.54414063 21.59898438 -23.55703125 20.30734375 -23.5703125 18.9765625 C-23.59867188 17.69007812 -23.62703125 16.40359375 -23.65625 15.078125 C-22.98169393 9.6245107 -20.36160773 5.89795589 -16.0703125 2.5390625 C-11.00754588 -1.31304253 -6.15013984 -1.81658935 0 0 Z " fill="#FAFAFA" transform="translate(152.1953125,61.6484375)"/>
<path d="M0 0 C5.19127208 2.41545117 8.41213026 5.32951985 10.84375 10.6171875 C13.09990812 17.10959187 12.49438077 23.52422179 9.64453125 29.71875 C6.66699526 35.04786271 3.58329958 37.34332722 -2.23046875 39.28125 C-8.15854372 40.09972189 -12.60617212 39.40324676 -17.5 35.8671875 C-21.75223496 31.97010534 -23.01677954 28.35581607 -23.60546875 22.640625 C-23.83088349 15.45553026 -23.84126791 11.0655558 -19.23046875 5.28125 C-13.55428702 -0.43566988 -7.87226752 -2.53677272 0 0 Z " fill="#F9F9F9" transform="translate(981.23046875,61.71875)"/>
<path d="M0 0 C4.4163226 1.20445162 4.4163226 1.20445162 6.4375 3.9375 C6.83190918 6.35263062 6.83190918 6.35263062 6.85742188 9.24755859 C6.87333374 10.3323349 6.88924561 11.41711121 6.90563965 12.53475952 C6.90584106 13.70664825 6.90604248 14.87853699 6.90625 16.0859375 C6.91386353 17.29061676 6.92147705 18.49529602 6.92932129 19.73648071 C6.94013543 22.28686448 6.9429701 24.83729258 6.93847656 27.38769531 C6.93750548 31.29046606 6.97909107 35.1912639 7.0234375 39.09375 C7.02864519 41.57030839 7.03133268 44.04687363 7.03125 46.5234375 C7.04764526 47.69127777 7.06404053 48.85911804 7.08093262 50.06234741 C7.00400939 59.08176244 7.00400939 59.08176244 4.06054688 62.17822266 C1.4375 63.9375 1.4375 63.9375 -1.125 64.5 C-4.36977268 63.7512063 -5.4733748 62.50505806 -7.5625 59.9375 C-8.07043457 57.35742188 -8.07043457 57.35742188 -8.08007812 54.40625 C-8.09268677 53.29830078 -8.10529541 52.19035156 -8.11828613 51.04882812 C-8.11018921 49.85708984 -8.10209229 48.66535156 -8.09375 47.4375 C-8.0975769 46.20966797 -8.10140381 44.98183594 -8.10534668 43.71679688 C-8.10806842 41.12108541 -8.10068911 38.52534664 -8.08398438 35.9296875 C-8.06258075 31.95250401 -8.08377963 27.97712718 -8.109375 24 C-8.10673177 21.47916267 -8.10160691 18.95832647 -8.09375 16.4375 C-8.10184692 15.24576172 -8.10994385 14.05402344 -8.11828613 12.82617188 C-8.10567749 11.71822266 -8.09306885 10.61027344 -8.08007812 9.46875 C-8.07689575 8.49486328 -8.07371338 7.52097656 -8.07043457 6.51757812 C-7.11637737 1.67139858 -4.83015339 -0.08473953 0 0 Z " fill="#070707" transform="translate(1155.5625,49.0625)"/>
<path d="M0 0 C0.86462357 -0.0127597 1.72924713 -0.02551941 2.62007141 -0.03866577 C4.02472908 -0.04200424 4.02472908 -0.04200424 5.45776367 -0.04541016 C6.41970139 -0.05206696 7.3816391 -0.05872375 8.37272644 -0.06558228 C10.41122522 -0.07572082 12.44975728 -0.08039893 14.48828125 -0.08007812 C17.60301784 -0.08444084 20.71632585 -0.12071891 23.83081055 -0.15869141 C25.81062341 -0.16456144 27.790443 -0.16852958 29.77026367 -0.17041016 C30.70062943 -0.18478119 31.63099518 -0.19915222 32.58955383 -0.21395874 C36.84287494 -0.18401665 39.196891 -0.08314578 42.90185547 2.16308594 C44.81323242 4.29052734 44.81323242 4.29052734 45.43823242 6.79052734 C44.53218253 10.4147269 42.94292971 11.31278817 39.81323242 13.29052734 C37.02794593 13.63341125 34.65793064 13.76082469 31.88745117 13.68115234 C31.13986038 13.67549255 30.39226959 13.66983276 29.62202454 13.66400146 C27.24759331 13.64171202 24.87470304 13.59153391 22.50073242 13.54052734 C20.88551993 13.52045254 19.27028365 13.50220348 17.6550293 13.48583984 C13.70717509 13.44187221 9.7604645 13.37289995 5.81323242 13.29052734 C5.81323242 17.25052734 5.81323242 21.21052734 5.81323242 25.29052734 C1.87761025 21.59342772 -1.17816405 17.74538608 -4.12426758 13.22802734 C-4.54772461 12.61636719 -4.97118164 12.00470703 -5.4074707 11.37451172 C-6.58911133 9.56787109 -6.58911133 9.56787109 -8.18676758 6.29052734 C-6.96947569 1.76587635 -4.54278144 0.04544132 0 0 Z " fill="#020202" transform="translate(454.186767578125,29.70947265625)"/>
<path d="M0 0 C8.58 0 17.16 0 26 0 C26 8.58 26 17.16 26 26 C17.42 26 8.84 26 0 26 C0 17.42 0 8.84 0 0 Z " fill="#FF2C30" transform="translate(1318,84)"/>
<path d="M0 0 C1.15363037 1.16354004 1.15363037 1.16354004 2.33056641 2.35058594 C4.07475546 4.08169437 5.86780314 5.76526732 7.7109375 7.390625 C15.78327188 16.05477275 15.82378226 24.81934062 15.4375 36.125 C15.41766052 36.87285767 15.39782104 37.62071533 15.37738037 38.39123535 C14.96263117 51.03434077 14.96263117 51.03434077 11.59399414 54.41357422 C8.65552387 56.2106735 7.36872967 56.69102147 4 56 C1.46599321 53.96640111 0.15222658 52.77697175 -0.48101807 49.54486084 C-0.47213562 48.62996887 -0.46325317 47.7150769 -0.45410156 46.77246094 C-0.45379944 45.73168396 -0.45349731 44.69090698 -0.45318604 43.61859131 C-0.43254089 42.50179993 -0.41189575 41.38500854 -0.390625 40.234375 C-0.38496521 39.08584045 -0.37930542 37.93730591 -0.37347412 36.75396729 C-0.35108331 33.08555426 -0.30087942 29.41811783 -0.25 25.75 C-0.22993861 23.26303494 -0.21168722 20.77605457 -0.1953125 18.2890625 C-0.15120955 12.19237511 -0.08426949 6.09625733 0 0 Z " fill="#000000" transform="translate(446,57)"/>
<path d="M0 0 C2.17578125 2.00390625 2.17578125 2.00390625 4.3125 4.5625 C7.26666947 8.00079758 10.23718797 11.35055047 13.4375 14.5625 C14.07558594 15.20316406 14.71367187 15.84382813 15.37109375 16.50390625 C16.94477382 18.08724519 16.94477382 18.08724519 19 19 C18.7421875 20.859375 18.7421875 20.859375 18 23 C12.16892295 27.39364875 5.01829982 27.88410931 -2 27 C-7.29549457 25.23483514 -9.75721478 22.35459729 -13 18 C-14.74451903 14.51096194 -14.57578672 10.80658999 -14 7 C-12.31568209 3.79979597 -9.93403371 1.67133673 -7 -0.4375 C-4.26097769 -1.20785003 -2.71930976 -0.8435082 0 0 Z " fill="#F7F7F7" transform="translate(351,74)"/>
<path d="M0 0 C0.61133789 0.61198242 1.22267578 1.22396484 1.85253906 1.85449219 C3.34997489 3.35056609 4.85267509 4.84138138 6.359375 6.328125 C13.5392382 15.10351336 13.81011265 23.75806246 13.6875 34.6875 C13.68045044 35.4156189 13.67340088 36.14373779 13.6661377 36.8939209 C13.4816613 49.27750805 13.4816613 49.27750805 11 53 C7.625 53.9375 7.625 53.9375 4 54 C1.42979615 52.03468433 0.1674101 50.82804379 -0.48101807 47.62078857 C-0.47213562 46.74142639 -0.46325317 45.86206421 -0.45410156 44.95605469 C-0.45379944 43.95531921 -0.45349731 42.95458374 -0.45318604 41.92352295 C-0.43254089 40.85047913 -0.41189575 39.7774353 -0.390625 38.671875 C-0.38496521 37.56773254 -0.37930542 36.46359009 -0.37347412 35.32598877 C-0.35108768 31.80021774 -0.30088496 28.27546376 -0.25 24.75 C-0.22993803 22.35938968 -0.21168674 19.96876342 -0.1953125 17.578125 C-0.15121543 11.71840313 -0.08427998 5.85927422 0 0 Z " fill="#010101" transform="translate(23,59)"/>
<path d="M0 0 C3.82697723 2.04602462 6.57925629 4.61665381 8.8671875 8.27734375 C8.8671875 9.59734375 8.8671875 10.91734375 8.8671875 12.27734375 C-1.6928125 12.27734375 -12.2528125 12.27734375 -23.1328125 12.27734375 C-22.05578959 6.89222921 -20.84156078 5.15859195 -17.1328125 1.27734375 C-12.13836028 -1.85747201 -5.51210845 -1.86765579 0 0 Z " fill="#F5F5F5" transform="translate(829.1328125,61.72265625)"/>
<path d="M0 0 C3.69288947 1.74709984 6.82834085 3.45186121 8.66796875 7.24609375 C8.66796875 8.89609375 8.66796875 10.54609375 8.66796875 12.24609375 C-1.56203125 12.24609375 -11.79203125 12.24609375 -22.33203125 12.24609375 C-21.2055899 5.48744564 -21.2055899 5.48744564 -17.89453125 2.93359375 C-16.96833984 2.19689453 -16.96833984 2.19689453 -16.0234375 1.4453125 C-11.33730121 -1.8771906 -5.37097927 -1.73634673 0 0 Z " fill="#F8F8F8" transform="translate(544.33203125,61.75390625)"/>
<path d="M0 0 C3.37328507 2.3534547 5.33547214 4.48531279 7.6875 7.875 C7.6875 9.195 7.6875 10.515 7.6875 11.875 C-2.5425 11.875 -12.7725 11.875 -23.3125 11.875 C-22.27251413 5.63508479 -21.87147645 4.69181749 -17.3125 0.875 C-11.93905997 -2.35807608 -5.79598564 -1.96844795 0 0 Z " fill="#F8F8F8" transform="translate(259.3125,62.125)"/>
<path d="M0 0 C3.58317958 -0.08720919 7.16608567 -0.14046112 10.75 -0.1875 C11.76578125 -0.21263672 12.7815625 -0.23777344 13.828125 -0.26367188 C14.8078125 -0.27333984 15.7875 -0.28300781 16.796875 -0.29296875 C17.69760742 -0.3086792 18.59833984 -0.32438965 19.52636719 -0.34057617 C22.51077454 0.07032476 23.86309807 0.89965519 26 3 C26.51020728 7.08165827 26.31361802 8.52957297 24 12 C18.90372173 13.69875942 14.25416428 14.37516398 9 13 C5.22041626 9.42157058 2.56286137 5.51089488 0 1 C0 0.67 0 0.34 0 0 Z " fill="#020202" transform="translate(467,65)"/>
<path d="M0 0 C0.680625 -0.00515625 1.36125 -0.0103125 2.0625 -0.015625 C4 0.25 4 0.25 7 2.25 C7.3984375 4.30859375 7.3984375 4.30859375 7.375 6.6875 C7.38273437 7.46996094 7.39046875 8.25242187 7.3984375 9.05859375 C6.90529379 11.77088417 6.23022348 12.65554158 4 14.25 C2.0625 14.61328125 2.0625 14.61328125 0 14.5625 C-1.0209375 14.55669922 -1.0209375 14.55669922 -2.0625 14.55078125 C-4 14.25 -4 14.25 -7 12.25 C-7.3984375 9.9375 -7.3984375 9.9375 -7.375 7.25 C-7.38273437 6.363125 -7.39046875 5.47625 -7.3984375 4.5625 C-7.26695313 3.799375 -7.13546875 3.03625 -7 2.25 C-4.00261059 0.25174039 -3.36652492 -0.02550398 0 0 Z " fill="#090909" transform="translate(1155,26.75)"/>
<path d="M0 0 C0 0.33 0 0.66 0 1 C-1.258125 1.103125 -2.51625 1.20625 -3.8125 1.3125 C-6.25924549 1.63671539 -7.79102409 1.87865915 -9.9375 3.125 C-11.54263152 5.95758503 -11.69781926 8.79688421 -12 12 C-12.33 12 -12.66 12 -13 12 C-13.47792208 4.83116883 -13.47792208 4.83116883 -11.5625 1.5 C-7.78106272 -0.71352426 -4.2792407 -0.32917236 0 0 Z " fill="#CACACA" transform="translate(934,38)"/>
<path d="M0 0 C0.66 0.33 1.32 0.66 2 1 C-0.64 3.64 -3.28 6.28 -6 9 C-6 6 -6 6 -3.5625 3.375 C-2.716875 2.59125 -1.87125 1.8075 -1 1 C-0.67 0.67 -0.34 0.34 0 0 Z " fill="#D8D8D8" transform="translate(1196,63)"/>
</svg>
